<svg width="64" height="64" viewBox="0 0 64 64" fill="none" xmlns="http://www.w3.org/2000/svg">
<path d="M42 32C42 37.5228 37.5228 42 32 42C26.4772 42 22 37.5228 22 32C22 26.4772 26.4772 22 32 22C37.5228 22 42 26.4772 42 32ZM26.0195 32C26.0195 35.3029 28.6971 37.9805 32 37.9805C35.3029 37.9805 37.9805 35.3029 37.9805 32C37.9805 28.6971 35.3029 26.0195 32 26.0195C28.6971 26.0195 26.0195 28.6971 26.0195 32Z" fill="#D9D9D9"/>
<path fill-rule="evenodd" clip-rule="evenodd" d="M30 8C30 6.89543 30.8954 6 32 6C33.1046 6 34 6.89543 34 8V14.1099C42.3432 15.0322 48.9678 21.6568 49.8901 30H56C57.1046 30 58 30.8954 58 32C58 33.1046 57.1046 34 56 34H49.8901C48.9678 42.3432 42.3432 48.9678 34 49.8901V56C34 57.1046 33.1046 58 32 58C30.8954 58 30 57.1046 30 56V49.8901C21.6568 48.9678 15.0322 42.3432 14.1099 34H8C6.89543 34 6 33.1046 6 32C6 30.8954 6.89543 30 8 30H14.1099C15.0322 21.6568 21.6568 15.0322 30 14.1099V8ZM18.1477 32C18.1477 39.6504 24.3496 45.8523 32 45.8523C39.6504 45.8523 45.8523 39.6504 45.8523 32C45.8523 24.3496 39.6504 18.1477 32 18.1477C24.3496 18.1477 18.1477 24.3496 18.1477 32Z" fill="#1B1A1C"/>
</svg>
