<?xml version="1.0" encoding="UTF-8" standalone="no"?>
<!DOCTYPE svg PUBLIC "-//W3C//DTD SVG 1.1//EN" "http://www.w3.org/Graphics/SVG/1.1/DTD/svg11.dtd">
<svg xmlns="http://www.w3.org/2000/svg" version="1.1" viewBox="0.00 0.00 64.00 64.00">
<path fill="#1b1a1c" d="
  M 14.12 25.59
  C 13.58 21.87 13.52 17.28 17.01 15.02
  C 23.22 11.00 26.24 17.93 27.83 22.43
  C 29.49 27.12 33.92 26.25 37.77 26.25
  A 2.24 2.23 -90.0 0 1 40.00 28.49
  L 40.00 47.75
  A 2.25 2.25 0.0 0 1 37.75 50.00
  L 13.71 50.00
  A 2.21 2.21 0.0 0 1 11.63 48.53
  C 9.59 42.83 0.69 26.88 13.56 26.26
  A 0.59 0.59 0.0 0 0 14.12 25.59
  Z
  M 17.80 29.05
  A 1.38 1.37 4.3 0 1 16.39 30.26
  C 14.41 30.20 9.40 29.78 10.47 33.51
  Q 11.29 36.35 14.94 45.59
  Q 15.10 46.00 15.54 46.00
  L 35.50 46.00
  Q 36.00 46.00 36.00 45.50
  L 36.00 30.96
  A 0.80 0.80 0.0 0 0 35.09 30.17
  C 26.79 31.38 24.72 25.54 22.21 19.25
  A 2.01 2.01 0.0 0 0 19.07 18.44
  Q 18.08 19.25 18.13 20.49
  Q 18.28 24.86 17.80 29.05
  Z"
/>
<path fill="#6c6d70" d="
  M 57.99 47.79
  A 2.19 2.19 0.0 0 1 55.80 49.98
  L 46.20 49.98
  A 2.19 2.19 0.0 0 1 44.01 47.79
  L 44.01 29.33
  A 2.19 2.19 0.0 0 1 46.20 27.14
  L 55.80 27.14
  A 2.19 2.19 0.0 0 1 57.99 29.33
  L 57.99 47.79
  Z
  M 54.00 31.59
  A 0.48 0.48 0.0 0 0 53.52 31.11
  L 48.48 31.11
  A 0.48 0.48 0.0 0 0 48.00 31.59
  L 48.00 45.51
  A 0.48 0.48 0.0 0 0 48.48 45.99
  L 53.52 45.99
  A 0.48 0.48 0.0 0 0 54.00 45.51
  L 54.00 31.59
  Z"
/>
</svg>
