<?xml version="1.0" encoding="UTF-8" standalone="no"?>
<!DOCTYPE svg PUBLIC "-//W3C//DTD SVG 1.1//EN" "http://www.w3.org/Graphics/SVG/1.1/DTD/svg11.dtd">
<svg xmlns="http://www.w3.org/2000/svg" version="1.1" viewBox="0.00 0.00 64.00 64.00">
<path fill="#1b1a1c" d="
  M 32.79 10.17
  L 50.82 18.14
  A 1.99 1.97 12.3 0 1 52.00 19.96
  C 51.98 26.91 52.78 36.12 51.00 41.90
  C 45.48 59.83 19.85 60.79 13.31 43.08
  C 11.10 37.09 11.95 27.05 12.02 19.92
  A 1.81 1.81 0.0 0 1 13.10 18.28
  L 31.22 10.17
  A 1.94 1.91 -44.6 0 1 32.79 10.17
  Z
  M 47.51 21.04
  L 32.43 14.37
  Q 32.02 14.19 31.61 14.38
  L 16.50 21.10
  A 0.83 0.82 -12.3 0 0 16.01 21.85
  C 15.99 28.20 15.16 36.96 17.26 42.07
  C 22.91 55.84 42.46 54.74 47.01 41.29
  C 48.75 36.15 48.01 27.95 47.99 21.78
  A 0.81 0.80 -78.3 0 0 47.51 21.04
  Z"
/>
<path fill="#6d6e71" d="
  M 30.49 34.80
  C 32.32 32.67 34.36 30.85 36.23 28.84
  Q 37.63 27.33 39.32 28.58
  A 1.83 1.82 -49.2 0 1 39.52 31.34
  L 31.44 39.44
  A 2.04 2.04 0.0 0 1 28.56 39.44
  L 24.59 35.46
  A 1.89 1.88 37.9 0 1 24.30 33.16
  C 25.93 30.42 28.44 33.28 29.40 34.73
  A 0.69 0.69 0.0 0 0 30.49 34.80
  Z"
/>
</svg>
