<?xml version="1.0" encoding="UTF-8" standalone="no"?>
<!DOCTYPE svg PUBLIC "-//W3C//DTD SVG 1.1//EN" "http://www.w3.org/Graphics/SVG/1.1/DTD/svg11.dtd">
<svg xmlns="http://www.w3.org/2000/svg" version="1.1" viewBox="0.00 0.00 64.00 64.00">
<path fill="#1b1a1c" d="
  M 58.0310 49.7646
  A 2.19 2.19 0.0 0 1 55.8449 51.9584
  L 8.2449 52.0415
  A 2.19 2.19 0.0 0 1 6.0511 49.8553
  L 5.9890 14.2354
  A 2.19 2.19 0.0 0 1 8.1751 12.0416
  L 55.7751 11.9585
  A 2.19 2.19 0.0 0 1 57.9689 14.1447
  L 58.0310 49.7646
  Z
  M 54.01 16.62
  A 0.62 0.62 0.0 0 0 53.39 16.00
  L 10.63 16.00
  A 0.62 0.62 0.0 0 0 10.01 16.62
  L 10.01 27.38
  A 0.62 0.62 0.0 0 0 10.63 28.00
  L 53.39 28.00
  A 0.62 0.62 0.0 0 0 54.01 27.38
  L 54.01 16.62
  Z
  M 54.00 32.62
  A 0.62 0.62 0.0 0 0 53.38 32.00
  L 10.62 32.00
  A 0.62 0.62 0.0 0 0 10.00 32.62
  L 10.00 47.38
  A 0.62 0.62 0.0 0 0 10.62 48.00
  L 53.38 48.00
  A 0.62 0.62 0.0 0 0 54.00 47.38
  L 54.00 32.62
  Z"
/>
<rect fill="#6d6d70" x="-5.94" y="-1.97" transform="translate(43.98,22.00) rotate(0.1)" width="11.88" height="3.94" rx="1.89"/>
</svg>
