<?xml version="1.0" encoding="UTF-8" standalone="no"?>
<!DOCTYPE svg PUBLIC "-//W3C//DTD SVG 1.1//EN" "http://www.w3.org/Graphics/SVG/1.1/DTD/svg11.dtd">
<svg xmlns="http://www.w3.org/2000/svg" version="1.1" viewBox="0.00 0.00 64.00 64.00">
<path fill="#6c6d70" d="
  M 36.67 28.17
  C 29.64 34.76 23.00 24.08 22.13 18.27
  C 20.84 9.59 29.37 2.32 37.37 7.43
  C 45.03 12.31 42.15 23.03 36.67 28.17
  Z
  M 30.62 25.43
  A 1.83 1.82 -41.6 0 0 33.03 25.57
  C 37.04 22.42 40.96 13.00 33.79 10.53
  Q 31.81 9.85 29.88 10.65
  C 23.17 13.43 27.08 21.89 30.62 25.43
  Z"
/>
<path fill="#1b1a1c" d="
  M 12.42 36.24
  C 14.07 33.24 16.22 30.29 18.42 27.73
  A 2.10 2.10 0.0 0 1 21.42 27.54
  C 22.27 28.30 22.21 29.71 21.47 30.63
  Q 17.67 35.39 15.86 38.84
  C 13.09 44.10 20.03 49.48 24.24 51.00
  C 29.30 52.82 38.30 52.58 43.21 49.26
  C 52.59 42.92 47.71 36.68 42.38 30.45
  A 2.16 2.16 0.0 0 1 43.57 26.93
  Q 45.00 26.62 46.19 28.09
  Q 51.26 34.31 52.74 38.50
  C 55.23 45.59 47.62 52.63 41.60 54.90
  C 37.52 56.44 28.52 56.67 24.05 55.42
  C 16.26 53.25 7.54 45.15 12.42 36.24
  Z"
/>
</svg>
