<?xml version="1.0" encoding="UTF-8" standalone="no"?>
<!DOCTYPE svg PUBLIC "-//W3C//DTD SVG 1.1//EN" "http://www.w3.org/Graphics/SVG/1.1/DTD/svg11.dtd">
<svg xmlns="http://www.w3.org/2000/svg" version="1.1" viewBox="0.00 0.00 64.00 64.00">
<path fill="#6d6d70" d="
  M 22.48 8.00
  L 41.54 8.00
  A 0.51 0.50 83.6 0 0 42.03 7.38
  Q 41.68 5.78 42.74 4.55
  A 1.78 1.77 -27.5 0 1 45.86 5.53
  L 46.06 7.55
  Q 46.10 8.00 46.55 8.00
  L 50.24 8.00
  Q 51.98 8.00 51.97 9.74
  L 51.93 14.46
  Q 51.92 15.14 51.34 15.48
  Q 49.82 16.36 48.39 15.27
  A 0.98 0.97 -71.9 0 1 48.00 14.49
  L 48.00 12.50
  Q 48.00 12.00 47.50 12.00
  L 16.51 12.00
  A 0.58 0.58 0.0 0 0 15.95 12.71
  Q 16.50 15.04 14.28 15.93
  A 1.67 1.67 0.0 0 1 11.98 14.33
  L 12.14 8.95
  A 0.85 0.85 0.0 0 1 12.96 8.12
  L 17.58 7.95
  A 0.48 0.48 0.0 0 0 18.03 7.38
  Q 17.50 4.89 19.79 3.96
  A 0.98 0.97 -37.0 0 1 20.75 4.09
  Q 22.33 5.31 21.98 7.41
  Q 21.88 8.00 22.48 8.00
  Z"
/>
<path fill="#1b1a1c" d="
  M 11.55 35.55
  Q 10.94 29.12 9.96 22.62
  A 2.29 2.28 -4.2 0 1 12.23 20.00
  L 51.78 20.00
  A 2.19 2.19 0.0 0 1 53.96 22.43
  C 53.22 29.09 51.66 36.07 52.46 42.74
  Q 53.25 49.33 54.00 55.74
  A 2.02 2.02 0.0 0 1 51.99 58.00
  L 12.03 58.00
  A 2.03 2.02 2.9 0 1 10.01 55.77
  C 10.72 49.04 12.18 42.25 11.55 35.55
  Z
  M 14.29 53.52
  Q 14.24 54.00 14.72 54.00
  L 49.24 54.00
  A 0.49 0.48 86.3 0 0 49.72 53.45
  Q 49.01 48.19 48.43 42.86
  C 47.76 36.67 48.98 30.72 49.73 24.54
  Q 49.79 24.00 49.25 24.00
  L 14.76 24.00
  A 0.50 0.50 0.0 0 0 14.27 24.57
  Q 15.00 29.72 15.56 34.93
  C 16.23 41.19 15.05 47.16 14.29 53.52
  Z"
/>
<path fill="#6d6d70" d="
  M 33.02 34.25
  L 27.00 34.25
  Q 26.25 34.25 26.25 33.50
  L 26.25 31.63
  A 0.63 0.63 0.0 0 1 26.88 31.00
  L 37.07 31.00
  A 1.76 1.76 0.0 0 1 38.30 34.03
  Q 33.33 38.87 32.45 45.91
  Q 32.38 46.50 31.78 46.50
  L 29.05 46.50
  Q 28.44 46.50 28.50 45.90
  Q 29.15 39.58 33.31 34.90
  Q 33.89 34.25 33.02 34.25
  Z"
/>
</svg>
