<svg width="64" height="64" viewBox="0 0 64 64" fill="none" xmlns="http://www.w3.org/2000/svg">
<path d="M18.7799 52.76C13.2733 50.2667 10.9366 45.45 11.7699 38.31L13.61 20.7303C13.6223 20.5754 13.6829 20.4283 13.7834 20.3099C13.8839 20.1914 14.0192 20.1076 14.17 20.0703L15.56 19.5003C15.56 19.5003 17.4799 19.0603 17.4799 18.0003C17.4799 15.9303 15.56 16.0003 15.56 16.0003C11.4799 16.0003 10.3733 15.9403 10 19.0603L7.85995 37.83C6.31995 50.39 13.8699 58.17 26.0899 58.04C37.1999 57.92 51.4199 60.46 55.6399 46.37C56.3066 44.13 56.4299 41.0267 56.0099 37.06C55.3699 31.0667 54.6933 25.0667 53.9799 19.06C53.6066 15.94 52.5 16 48.4199 16C48.4199 16 46.5 15.93 46.5 18C46.5 19.06 48.4199 19.5 48.4199 19.5L49.81 20.07C49.9608 20.1073 50.096 20.1911 50.1965 20.3096C50.297 20.428 50.3577 20.5751 50.3699 20.73C50.7099 24.8833 51.1066 29.0267 51.56 33.16C52.5 41.8 53.43 48.98 45.4 52.68C40.76 54.82 23.4899 54.88 18.7799 52.76Z" fill="#1B1A1C"/>
<path d="M44.1017 36H20.0382C18.9512 36 18.0699 36.873 18.0699 37.95V38.05C18.0699 39.127 18.9512 40 20.0382 40H44.1017C45.1887 40 46.0699 39.127 46.0699 38.05V37.95C46.0699 36.873 45.1887 36 44.1017 36Z" fill="#6C6D70"/>
<path d="M41.2388 12.1732C41.7413 13.3864 42 14.6868 42 16V24C42 25.1046 41.1046 26 40 26C38.8954 26 38 25.1046 38 24V16C38 15.2121 37.8448 14.4319 37.5433 13.7039C37.2417 12.9759 36.7998 12.3145 36.2426 11.7574C35.6855 11.2002 35.0241 10.7583 34.2961 10.4567C33.5681 10.1552 32.7879 10 32 10C31.2121 10 30.4319 10.1552 29.7039 10.4567C28.9759 10.7583 28.3145 11.2002 27.7574 11.7574C27.2002 12.3145 26.7583 12.9759 26.4567 13.7039C26.1552 14.4319 26 15.2121 26 16V24C26 25.1046 25.1046 26 24 26C22.8954 26 22 25.1046 22 24V16C22 14.6868 22.2587 13.3864 22.7612 12.1732C23.2638 10.9599 24.0003 9.85752 24.9289 8.92893C25.8575 8.00035 26.9599 7.26375 28.1732 6.7612C29.3864 6.25866 30.6868 6 32 6C33.3132 6 34.6136 6.25866 35.8268 6.7612C37.0401 7.26375 38.1425 8.00035 39.0711 8.92893C39.9997 9.85752 40.7362 10.9599 41.2388 12.1732Z" fill="#6C6D70"/>
</svg>
