<?xml version="1.0" encoding="UTF-8" standalone="no"?>
<!DOCTYPE svg PUBLIC "-//W3C//DTD SVG 1.1//EN" "http://www.w3.org/Graphics/SVG/1.1/DTD/svg11.dtd">
<svg xmlns="http://www.w3.org/2000/svg" version="1.1" viewBox="0.00 0.00 64.00 64.00">
<path fill="#263238" d="
  M 46.20 25.17
  C 43.05 14.05 29.56 10.18 21.39 18.76
  A 1.64 1.61 -75.6 0 1 20.68 19.19
  Q 18.96 19.66 18.02 18.14
  A 1.62 1.62 0.0 0 1 18.20 16.18
  C 29.50 3.86 47.21 11.11 50.67 26.34
  Q 50.87 27.19 51.28 26.42
  Q 52.14 24.85 53.81 24.40
  Q 54.28 24.28 54.69 24.53
  C 58.25 26.71 52.02 31.45 50.19 33.14
  A 1.90 1.90 0.0 0 1 47.52 33.05
  L 42.04 27.30
  A 1.49 1.48 51.2 0 1 42.28 25.05
  L 43.40 24.30
  A 0.85 0.84 -40.4 0 1 44.45 24.38
  L 45.67 25.50
  A 0.33 0.32 -76.7 0 0 46.20 25.17
  Z"
/>
<path fill="#263238" d="
  M 17.97 32.44
  A 0.40 0.40 0.0 0 0 17.22 32.70
  C 19.30 46.18 34.61 50.30 43.71 39.89
  A 1.74 1.74 0.0 0 1 46.37 39.94
  Q 47.61 41.46 46.52 42.80
  C 34.94 56.91 15.63 48.86 13.01 31.99
  A 0.33 0.33 0.0 0 0 12.40 31.87
  Q 11.53 33.36 9.96 33.61
  A 1.84 1.84 0.0 0 1 8.33 30.53
  L 13.60 24.95
  A 1.90 1.90 0.0 0 1 16.33 24.92
  Q 18.78 27.40 21.29 30.42
  C 23.67 33.28 19.48 35.14 17.97 32.44
  Z"
/>
</svg>
