<?xml version="1.0" encoding="UTF-8" standalone="no"?>
<!DOCTYPE svg PUBLIC "-//W3C//DTD SVG 1.1//EN" "http://www.w3.org/Graphics/SVG/1.1/DTD/svg11.dtd">
<svg xmlns="http://www.w3.org/2000/svg" version="1.1" viewBox="0.00 0.00 64.00 64.00">
<path fill="#263238" d="
  M 57.89 31.99
  A 25.89 25.89 0.0 0 1 32.00 57.88
  A 25.89 25.89 0.0 0 1 6.11 31.99
  A 25.89 25.89 0.0 0 1 32.00 6.10
  A 25.89 25.89 0.0 0 1 57.89 31.99
  Z
  M 42.68 32.86
  A 2.04 2.04 0.0 0 1 45.36 32.77
  Q 49.21 35.91 51.34 40.52
  A 0.65 0.64 -49.5 0 0 52.54 40.42
  Q 57.42 23.30 44.47 14.04
  C 35.58 7.69 24.06 9.02 16.39 16.63
  Q 6.90 26.04 11.68 40.75
  A 0.46 0.46 0.0 0 0 12.53 40.79
  Q 14.69 35.98 18.78 32.68
  Q 20.10 31.62 21.32 32.79
  Q 31.85 42.87 42.68 32.86
  Z
  M 43.53 37.33
  Q 31.99 46.31 20.41 37.29
  Q 19.93 36.91 19.52 37.37
  Q 16.51 40.79 15.02 45.12
  Q 14.85 45.61 15.19 46.00
  C 24.28 56.79 39.52 56.46 48.78 45.97
  Q 49.10 45.61 48.95 45.15
  Q 47.48 40.87 44.53 37.43
  Q 44.08 36.90 43.53 37.33
  Z"
/>
<path fill="#263238" d="
  M 40.86 24.33
  A 8.88 8.88 0.0 0 1 31.98 33.21
  A 8.88 8.88 0.0 0 1 23.10 24.33
  A 8.88 8.88 0.0 0 1 31.98 15.45
  A 8.88 8.88 0.0 0 1 40.86 24.33
  Z
  M 36.85 24.31
  A 4.86 4.86 0.0 0 0 31.99 19.45
  A 4.86 4.86 0.0 0 0 27.13 24.31
  A 4.86 4.86 0.0 0 0 31.99 29.17
  A 4.86 4.86 0.0 0 0 36.85 24.31
  Z"
/>
</svg>
