<?xml version="1.0" encoding="UTF-8" standalone="no"?>
<!DOCTYPE svg PUBLIC "-//W3C//DTD SVG 1.1//EN" "http://www.w3.org/Graphics/SVG/1.1/DTD/svg11.dtd">
<svg xmlns="http://www.w3.org/2000/svg" version="1.1" viewBox="0.00 0.00 64.00 64.00">
<path fill="#263238" d="
  M 46.26 18.00
  L 56.05 18.00
  A 1.98 1.97 4.8 0 1 58.00 20.30
  L 52.00 56.16
  A 2.19 2.19 0.0 0 1 49.84 58.00
  L 14.14 58.00
  A 2.22 2.21 85.2 0 1 11.96 56.15
  L 6.04 20.55
  A 2.19 2.19 0.0 0 1 8.20 18.00
  L 17.75 18.00
  A 0.62 0.62 0.0 0 0 18.36 17.50
  C 21.49 2.39 42.61 2.56 45.68 17.53
  Q 45.78 18.00 46.26 18.00
  Z
  M 41.69 17.40
  C 38.72 7.55 26.16 7.62 22.29 17.33
  A 0.49 0.49 0.0 0 0 22.75 18.00
  L 41.25 18.00
  A 0.46 0.46 0.0 0 0 41.69 17.40
  Z
  M 18.45 27.07
  Q 17.63 25.24 18.05 23.28
  A 1.06 1.06 0.0 0 0 17.01 22.00
  L 10.81 22.01
  Q 10.35 22.01 10.43 22.47
  L 15.63 53.48
  Q 15.72 54.00 16.25 54.00
  L 47.63 54.00
  Q 48.29 54.00 48.40 53.35
  L 53.52 22.72
  Q 53.64 22.00 52.91 22.00
  L 46.50 22.00
  Q 46.01 22.00 46.01 22.50
  L 45.99 26.48
  A 1.84 1.83 35.5 0 1 42.42 27.07
  Q 41.63 24.81 42.08 22.49
  A 0.41 0.41 0.0 0 0 41.68 22.00
  L 22.50 22.00
  Q 22.00 22.00 22.00 22.50
  L 22.00 26.31
  A 1.86 1.86 0.0 0 1 18.45 27.07
  Z"
/>
<path fill="#263238" d="
  M 20.07 37.29
  Q 20.71 36.11 21.72 35.97
  Q 22.44 35.86 23.46 36.71
  Q 32.26 44.03 40.97 36.34
  Q 41.39 35.97 41.95 35.99
  Q 43.94 36.06 44.04 38.00
  A 1.28 1.24 -27.2 0 1 43.74 38.89
  C 37.75 45.76 25.84 46.27 20.17 38.70
  Q 19.67 38.03 20.07 37.29
  Z"
/>
</svg>
