<?xml version="1.0" encoding="UTF-8" standalone="no"?>
<!DOCTYPE svg PUBLIC "-//W3C//DTD SVG 1.1//EN" "http://www.w3.org/Graphics/SVG/1.1/DTD/svg11.dtd">
<svg xmlns="http://www.w3.org/2000/svg" version="1.1" viewBox="0.00 0.00 256.00 256.00">
<path fill="#000000" d="
  M 212.24 88.00
  L 168.50 88.00
  A 0.52 0.51 -90.0 0 0 167.99 88.52
  C 168.01 93.75 169.25 107.36 166.99 111.65
  C 164.13 117.08 156.36 117.15 153.27 112.10
  C 150.68 107.88 152.03 94.06 151.97 88.69
  A 0.70 0.70 0.0 0 0 151.27 88.00
  L 104.51 88.00
  A 0.50 0.50 0.0 0 0 104.01 88.50
  C 103.99 94.10 105.30 106.93 102.92 111.65
  C 98.81 119.83 87.95 115.61 88.01 106.47
  Q 88.08 97.58 87.96 88.68
  A 0.69 0.69 0.0 0 0 87.27 88.00
  L 43.75 88.00
  A 0.46 0.46 0.0 0 0 43.30 88.56
  Q 46.32 102.98 49.23 117.50
  C 51.55 129.10 35.83 132.81 33.18 119.98
  Q 29.27 101.00 25.54 81.99
  C 24.08 74.54 29.63 72.01 36.14 72.01
  Q 61.82 71.99 87.47 72.00
  A 0.53 0.52 -89.4 0 0 87.99 71.48
  C 88.04 63.87 87.43 55.09 88.86 48.25
  C 97.82 5.49 158.80 5.33 167.26 49.07
  C 168.51 55.52 167.92 64.04 168.03 71.41
  Q 168.04 71.97 168.60 71.98
  Q 193.91 72.05 219.14 71.99
  C 226.94 71.96 231.91 74.85 230.26 83.24
  Q 226.74 101.18 223.10 119.09
  Q 222.27 123.21 220.91 124.95
  C 217.95 128.76 212.08 129.06 208.81 125.50
  C 206.31 122.78 206.49 119.89 207.26 116.13
  Q 210.08 102.35 212.68 88.53
  Q 212.78 88.00 212.24 88.00
  Z
  M 104.71 72.00
  L 151.31 72.00
  A 0.73 0.73 0.0 0 0 152.04 71.27
  L 152.04 56.43
  A 24.41 23.92 -90.0 0 0 128.12 32.02
  L 127.90 32.02
  A 24.41 23.92 90.0 0 0 103.98 56.43
  L 103.98 71.27
  A 0.73 0.73 0.0 0 0 104.71 72.00
  Z"
/>
<path fill="#000000" d="
  M 103.90 127.60
  C 105.03 116.69 121.24 117.69 119.80 130.49
  C 117.86 147.72 99.06 157.54 83.80 148.60
  C 77.20 144.73 72.39 137.28 72.08 129.37
  C 71.73 120.16 82.99 116.25 86.97 124.22
  Q 87.31 124.91 88.02 128.88
  C 89.77 138.72 102.79 138.36 103.90 127.60
  Z"
/>
<path fill="#000000" d="
  M 167.98 127.30
  C 169.51 116.09 186.14 118.11 183.61 131.77
  C 180.37 149.22 161.22 157.87 146.20 147.56
  Q 136.74 141.07 136.14 129.43
  C 135.55 117.96 150.28 116.79 151.95 127.19
  Q 152.55 130.91 152.96 131.73
  C 155.80 137.36 164.30 137.26 167.09 131.61
  Q 167.51 130.76 167.98 127.30
  Z"
/>
<path fill="#000000" d="
  M 213.06 145.44
  C 216.61 147.39 216.76 151.49 215.99 155.40
  Q 209.14 190.42 202.14 225.43
  C 201.11 230.60 197.08 231.99 192.00 231.99
  Q 128.41 232.01 64.81 232.00
  C 59.44 232.00 55.24 230.90 54.13 225.32
  Q 47.06 189.64 40.09 153.93
  C 38.41 145.29 49.11 139.94 54.10 147.36
  Q 55.20 149.00 56.00 153.02
  Q 62.21 184.25 68.28 215.61
  A 0.48 0.47 -5.0 0 0 68.75 216.00
  L 187.00 216.00
  Q 187.58 216.00 187.70 215.43
  Q 193.77 185.00 199.68 154.76
  C 201.12 147.37 204.34 140.64 213.06 145.44
  Z"
/>
</svg>
