<?xml version="1.0" encoding="UTF-8" standalone="no"?>
<!DOCTYPE svg PUBLIC "-//W3C//DTD SVG 1.1//EN" "http://www.w3.org/Graphics/SVG/1.1/DTD/svg11.dtd">
<svg xmlns="http://www.w3.org/2000/svg" version="1.1" viewBox="0.00 0.00 64.00 64.00">
<path fill="#231f20" d="
  M 16.68 37.82
  Q 16.26 40.01 17.28 42.01
  A 2.08 2.07 -13.6 0 1 15.44 45.02
  C 0.99 45.12 3.75 29.79 3.74 20.70
  C 3.73 13.41 5.51 10.74 12.84 10.74
  Q 23.16 10.75 33.50 10.76
  C 39.12 10.76 40.12 16.34 39.98 21.26
  Q 39.96 21.82 40.51 21.81
  C 47.85 21.73 59.45 18.63 59.49 29.86
  C 59.53 38.23 62.52 53.17 49.70 54.26
  C 43.66 54.78 48.69 49.02 46.72 47.11
  Q 46.37 46.76 45.87 46.76
  C 39.07 46.73 23.44 49.90 25.37 37.56
  Q 25.46 36.98 24.87 36.98
  L 17.59 37.05
  A 0.94 0.94 0.0 0 0 16.68 37.82
  Z
  M 35.36 19.82
  C 36.02 16.80 34.75 15.22 31.63 15.23
  Q 21.13 15.28 11.42 15.24
  Q 8.29 15.22 8.26 18.36
  Q 8.17 27.94 8.63 36.06
  Q 8.76 38.23 11.50 39.54
  Q 11.93 39.75 11.94 39.27
  C 12.01 31.01 19.46 32.79 24.91 32.44
  A 0.59 0.59 0.0 0 0 25.44 31.74
  Q 23.92 23.98 30.65 21.86
  C 31.77 21.50 33.58 21.86 34.84 21.73
  Q 35.36 21.68 35.50 21.17
  Q 35.58 20.87 35.43 20.55
  Q 35.27 20.20 35.36 19.82
  Z
  M 35.17 30.83
  L 35.40 26.81
  Q 35.44 26.17 34.81 26.20
  L 30.86 26.38
  A 0.93 0.93 0.0 0 0 29.98 27.24
  L 29.68 31.67
  Q 29.63 32.33 30.27 32.44
  Q 32.56 32.87 34.52 31.85
  A 1.24 1.24 0.0 0 0 35.17 30.83
  Z
  M 30.06 37.44
  C 25.91 48.50 50.93 35.23 52.06 48.59
  Q 52.10 49.11 52.54 48.82
  Q 54.95 47.19 54.96 45.42
  Q 55.02 36.57 55.00 28.71
  Q 54.99 26.25 52.52 26.25
  L 40.50 26.25
  A 0.50 0.50 0.0 0 0 40.00 26.77
  C 40.13 32.04 39.27 36.60 32.99 36.86
  Q 31.72 36.91 30.57 37.04
  Q 30.19 37.09 30.06 37.44
  Z"
/>
</svg>
