<?xml version="1.0" encoding="UTF-8" standalone="no"?>
<!DOCTYPE svg PUBLIC "-//W3C//DTD SVG 1.1//EN" "http://www.w3.org/Graphics/SVG/1.1/DTD/svg11.dtd">
<svg xmlns="http://www.w3.org/2000/svg" version="1.1" viewBox="0.00 0.00 512.00 512.00">
<path fill="#231f20" d="
  M 50.38 415.66
  C 22.09 313.88 21.11 205.75 48.47 103.44
  C 52.01 90.20 53.22 83.04 66.60 79.85
  C 190.46 50.29 319.75 50.10 443.73 79.40
  C 454.33 81.91 458.76 85.68 461.55 95.83
  Q 505.51 256.00 461.73 416.08
  C 457.79 430.48 450.83 431.63 437.68 434.60
  Q 255.52 475.77 73.61 433.84
  C 59.81 430.66 54.15 429.21 50.38 415.66
  Z
  M 70.06 187.15
  L 255.38 281.88
  A 1.47 1.44 -44.6 0 0 256.69 281.88
  L 441.92 187.22
  Q 442.50 186.92 442.42 186.27
  Q 437.74 149.37 428.27 113.41
  A 1.18 1.17 -0.8 0 0 427.40 112.57
  Q 255.98 74.39 84.57 112.58
  A 1.18 1.17 0.8 0 0 83.69 113.43
  Q 74.27 149.37 69.57 186.22
  Q 69.49 186.85 70.06 187.15
  Z
  M 444.54 213.91
  A 0.62 0.62 0.0 0 0 443.64 213.41
  Q 352.09 260.37 261.69 306.69
  C 257.55 308.81 253.50 308.25 249.15 306.04
  Q 158.17 259.62 67.34 213.14
  A 0.31 0.30 15.0 0 0 66.90 213.39
  Q 59.85 307.54 83.79 398.75
  Q 83.92 399.25 84.43 399.37
  Q 255.92 437.61 427.40 399.42
  A 1.15 1.14 -88.7 0 0 428.26 398.59
  Q 451.73 307.67 444.54 213.91
  Z"
/>
</svg>
