<?xml version="1.0" encoding="UTF-8" standalone="no"?>
<!DOCTYPE svg PUBLIC "-//W3C//DTD SVG 1.1//EN" "http://www.w3.org/Graphics/SVG/1.1/DTD/svg11.dtd">
<svg xmlns="http://www.w3.org/2000/svg" version="1.1" viewBox="0.00 0.00 64.00 64.00">
<path fill="#231f20" d="
  M 41.56 36.44
  Q 46.94 38.70 53.88 36.83
  C 55.86 36.29 57.81 37.20 56.97 39.47
  Q 52.90 50.54 42.64 54.20
  C 14.16 64.35 -3.58 24.42 24.73 9.74
  Q 27.51 8.29 29.23 9.74
  A 0.93 0.93 0.0 0 1 29.53 10.66
  Q 25.01 29.49 41.56 36.44
  Z
  M 51.25 41.33
  C 35.04 43.64 23.85 29.99 24.50 14.92
  A 0.41 0.41 0.0 0 0 23.86 14.56
  C 14.57 20.88 11.37 32.39 17.40 42.13
  C 25.51 55.23 43.43 54.45 51.59 41.87
  A 0.35 0.35 0.0 0 0 51.25 41.33
  Z"
/>
</svg>
