<?xml version="1.0" encoding="UTF-8" standalone="no"?>
<!DOCTYPE svg PUBLIC "-//W3C//DTD SVG 1.1//EN" "http://www.w3.org/Graphics/SVG/1.1/DTD/svg11.dtd">
<svg xmlns="http://www.w3.org/2000/svg" version="1.1" viewBox="0.00 0.00 128.00 128.00">
<path fill="#6d6e71" d="
  M 112.28 43.48
  C 115.23 45.47 117.80 47.93 114.34 51.15
  C 112.88 52.51 110.70 51.87 109.07 50.78
  Q 86.75 35.94 64.65 21.17
  A 1.17 1.16 -44.7 0 0 63.36 21.17
  Q 40.87 36.33 18.03 51.33
  C 13.27 54.46 9.08 47.86 13.91 44.64
  Q 38.21 28.44 61.90 12.66
  A 3.77 3.77 0.0 0 1 66.07 12.65
  Q 89.69 28.21 112.28 43.48
  Z"
/>
<path fill="#1b1a1c" d="
  M 32.42 116.02
  A 4.53 4.53 0.0 0 1 27.89 111.49
  L 27.89 77.55
  A 35.28 33.51 -0.0 0 1 63.17 44.04
  L 64.85 44.04
  A 35.28 33.51 -0.0 0 1 100.13 77.55
  L 100.13 111.49
  A 4.53 4.53 0.0 0 1 95.60 116.02
  L 32.42 116.02
  Z
  M 36.37 108.01
  L 91.65 108.01
  A 0.46 0.46 0.0 0 0 92.11 107.55
  L 92.11 77.60
  A 27.19 25.55 0.0 0 0 64.92 52.05
  L 63.10 52.05
  A 27.19 25.55 -0.0 0 0 35.91 77.60
  L 35.91 107.55
  A 0.46 0.46 0.0 0 0 36.37 108.01
  Z"
/>
<path fill="#6d6e71" d="
  M 56.01 84.50
  C 55.99 87.67 56.77 95.85 55.19 98.33
  C 52.86 101.99 48.05 99.42 48.01 95.09
  Q 47.96 87.23 48.02 79.96
  A 3.99 3.99 0.0 0 1 52.01 76.00
  L 75.99 76.00
  A 4.00 3.99 89.7 0 1 79.98 79.96
  Q 80.04 87.25 80.01 95.25
  C 80.00 99.19 75.63 101.87 73.01 98.48
  C 71.19 96.14 71.99 87.64 72.01 84.52
  A 0.52 0.52 0.0 0 0 71.49 84.00
  L 56.52 84.00
  Q 56.01 84.00 56.01 84.50
  Z"
/>
</svg>
