<?xml version="1.0" encoding="UTF-8" standalone="no"?>
<!DOCTYPE svg PUBLIC "-//W3C//DTD SVG 1.1//EN" "http://www.w3.org/Graphics/SVG/1.1/DTD/svg11.dtd">
<svg xmlns="http://www.w3.org/2000/svg" version="1.1" viewBox="0.00 0.00 64.00 64.00">
<rect fill="#231f20" x="32.06" y="4.07" width="3.90" height="7.84" rx="1.85"/>
<ellipse fill="#231f20" cx="0.00" cy="0.00" transform="translate(18.43,14.42) rotate(44.4)" rx="4.06" ry="2.15"/>
<rect fill="#231f20" x="-1.94" y="-3.88" transform="translate(49.38,14.47) rotate(44.6)" width="3.88" height="7.76" rx="1.77"/>
<path fill="#231f20" d="
  M 47.91 30.00
  A 13.91 13.91 0.0 0 1 34.00 43.91
  A 13.91 13.91 0.0 0 1 20.09 30.00
  A 13.91 13.91 0.0 0 1 34.00 16.09
  A 13.91 13.91 0.0 0 1 47.91 30.00
  Z
  M 43.94 30.00
  A 9.95 9.95 0.0 0 0 33.99 20.05
  A 9.95 9.95 0.0 0 0 24.04 30.00
  A 9.95 9.95 0.0 0 0 33.99 39.95
  A 9.95 9.95 0.0 0 0 43.94 30.00
  Z"
/>
<rect fill="#231f20" x="-3.93" y="-1.95" transform="translate(11.99,30.00) rotate(0.1)" width="7.86" height="3.90" rx="1.83"/>
<rect fill="#231f20" x="-3.93" y="-1.96" transform="translate(55.99,29.98) rotate(0.2)" width="7.86" height="3.92" rx="1.85"/>
<rect fill="#231f20" x="-2.00" y="-3.86" transform="translate(18.42,45.56) rotate(44.8)" width="4.00" height="7.72" rx="1.89"/>
<rect fill="#231f20" x="-3.87" y="-2.00" transform="translate(49.58,45.57) rotate(44.8)" width="7.74" height="4.00" rx="1.89"/>
<rect fill="#231f20" x="-1.95" y="-3.92" transform="translate(34.01,51.99) rotate(-0.1)" width="3.90" height="7.84" rx="1.85"/>
</svg>
