<?xml version="1.0" encoding="UTF-8" standalone="no"?>
<!DOCTYPE svg PUBLIC "-//W3C//DTD SVG 1.1//EN" "http://www.w3.org/Graphics/SVG/1.1/DTD/svg11.dtd">
<svg xmlns="http://www.w3.org/2000/svg" version="1.1" viewBox="0.00 0.00 128.00 128.00">
<path fill="#1b1a1c" d="
  M 32.38 39.38
  C 36.69 16.49 61.06 4.76 81.23 17.28
  C 85.96 20.21 82.11 26.62 75.93 23.32
  C 61.41 15.55 43.59 22.89 40.59 39.48
  Q 40.49 39.99 41.01 39.99
  Q 66.13 40.03 91.17 39.99
  C 103.04 39.98 107.96 42.82 107.98 54.94
  Q 108.02 71.22 107.99 87.50
  Q 107.99 89.05 106.57 90.56
  C 100.50 96.99 93.38 104.98 86.72 109.29
  C 73.52 117.83 55.70 118.14 42.12 109.83
  C 34.92 105.43 27.23 96.74 20.78 89.91
  A 2.93 2.91 -66.8 0 1 19.99 87.91
  Q 20.02 71.93 19.99 55.71
  C 19.97 46.87 22.19 40.88 31.77 39.93
  Q 32.29 39.88 32.38 39.38
  Z
  M 72.65 106.78
  C 84.56 103.80 91.49 94.53 99.61 86.25
  Q 100.00 85.85 100.00 85.30
  L 100.00 51.75
  A 3.75 3.75 0.0 0 0 96.25 48.00
  L 31.88 48.00
  A 3.88 3.88 0.0 0 0 28.00 51.88
  L 28.00 85.56
  Q 28.00 86.11 28.39 86.51
  C 41.90 100.09 52.03 111.95 72.65 106.78
  Z"
/>
<path fill="#6d6e71" d="
  M 49.54 65.31
  C 56.35 51.63 76.97 53.51 79.66 69.10
  C 81.07 77.25 76.45 84.54 68.53 87.24
  Q 68.02 87.41 68.01 87.95
  C 67.98 90.71 68.64 95.35 64.61 95.87
  C 60.61 96.39 59.56 92.43 60.08 89.14
  Q 60.36 87.34 58.60 86.84
  C 49.93 84.37 45.64 73.12 49.54 65.31
  Z
  M 71.92 71.99
  A 7.93 7.93 0.0 0 0 63.99 64.06
  A 7.93 7.93 0.0 0 0 56.06 71.99
  A 7.93 7.93 0.0 0 0 63.99 79.92
  A 7.93 7.93 0.0 0 0 71.92 71.99
  Z"
/>
</svg>
