<?xml version="1.0" encoding="UTF-8" standalone="no"?>
<!DOCTYPE svg PUBLIC "-//W3C//DTD SVG 1.1//EN" "http://www.w3.org/Graphics/SVG/1.1/DTD/svg11.dtd">
<svg xmlns="http://www.w3.org/2000/svg" version="1.1" viewBox="0.00 0.00 128.00 128.00">
<path fill="#231f20" d="
  M 87.28 45.74
  C 84.39 59.83 68.21 67.22 55.52 62.30
  C 45.09 58.26 40.12 49.45 40.01 38.53
  C 39.91 29.47 40.29 21.40 49.58 17.44
  Q 52.91 16.02 59.75 16.01
  C 70.20 15.98 82.01 14.21 86.67 25.97
  C 88.71 31.13 88.42 40.16 87.28 45.74
  Z
  M 72.11 24.04
  L 55.85 24.06
  A 7.87 7.87 0.0 0 0 48.00 31.95
  L 48.01 39.57
  A 16.43 15.89 89.9 0 0 63.93 55.97
  L 64.15 55.97
  A 16.43 15.89 89.9 0 0 80.01 39.51
  L 80.00 31.89
  A 7.87 7.87 0.0 0 0 72.11 24.04
  Z"
/>
<path fill="#231f20" d="
  M 24.52 104.00
  L 103.49 104.00
  Q 104.00 104.00 103.98 103.49
  Q 103.35 85.42 89.88 73.62
  C 85.65 69.92 90.81 63.78 95.09 67.54
  Q 112.52 82.89 111.97 107.25
  C 111.90 110.50 110.40 111.99 107.05 111.99
  Q 63.54 112.01 20.00 112.00
  C 17.10 112.00 16.08 109.65 16.01 106.98
  Q 15.35 82.75 33.29 67.06
  C 35.79 64.88 40.41 66.84 40.04 70.21
  C 39.79 72.48 36.56 75.16 34.91 76.91
  Q 24.39 88.07 24.02 103.49
  Q 24.01 104.00 24.52 104.00
  Z"
/>
</svg>
