<?xml version="1.0" encoding="UTF-8" standalone="no"?>
<!DOCTYPE svg PUBLIC "-//W3C//DTD SVG 1.1//EN" "http://www.w3.org/Graphics/SVG/1.1/DTD/svg11.dtd">
<svg xmlns="http://www.w3.org/2000/svg" version="1.1" viewBox="0.00 0.00 64.00 64.00">
<path fill="#231f20" d="
  M 8.19 49.44
  Q 7.83 30.43 8.04 11.43
  C 8.09 6.71 9.91 4.04 14.73 4.02
  Q 27.61 3.98 40.50 4.00
  C 44.33 4.00 52.20 13.26 54.52 15.71
  A 5.37 5.34 23.5 0 1 55.98 19.38
  Q 56.04 33.82 55.98 48.57
  C 55.96 53.27 54.05 55.96 49.27 55.98
  Q 32.69 56.04 16.10 55.98
  C 11.08 55.96 8.29 54.82 8.19 49.44
  Z
  M 36.82 32.03
  C 42.56 32.12 44.03 34.77 44.00 40.36
  Q 43.98 45.91 44.01 51.50
  Q 44.01 52.00 44.51 52.00
  L 50.00 52.00
  A 2.00 2.00 0.0 0 0 52.00 50.00
  L 52.00 19.27
  A 1.00 0.96 24.0 0 0 51.72 18.59
  L 41.41 8.29
  Q 41.13 8.00 40.72 8.00
  L 14.00 8.00
  A 2.00 2.00 0.0 0 0 12.00 10.00
  L 12.00 50.25
  A 1.75 1.75 0.0 0 0 13.75 52.00
  L 19.44 52.00
  Q 20.01 52.00 20.01 51.43
  Q 19.98 45.07 20.03 38.73
  C 20.09 29.66 31.14 31.94 36.82 32.03
  Z
  M 24.02 37.49
  L 23.99 51.37
  Q 23.99 52.00 24.62 52.00
  L 39.50 52.00
  Q 40.00 52.00 40.00 51.50
  L 40.00 38.12
  A 2.13 2.12 0.0 0 0 37.87 36.00
  L 25.50 36.00
  A 1.49 1.49 0.0 0 0 24.02 37.49
  Z"
/>
<rect fill="#231f20" x="20.04" y="20.00" width="23.90" height="3.98" rx="1.94"/>
</svg>
