<?xml version="1.0" encoding="UTF-8" standalone="no"?>
<!DOCTYPE svg PUBLIC "-//W3C//DTD SVG 1.1//EN" "http://www.w3.org/Graphics/SVG/1.1/DTD/svg11.dtd">
<svg xmlns="http://www.w3.org/2000/svg" version="1.1" viewBox="0.00 0.00 64.00 64.00">
<path fill="#231f20" d="
  M 48.95 15.62
  L 16.29 26.45
  Q 15.01 26.87 16.15 27.59
  L 22.18 31.42
  A 1.53 1.52 -67.3 0 1 22.85 33.06
  C 22.42 34.92 20.68 35.19 19.22 34.25
  Q 14.36 31.13 9.49 28.11
  A 2.14 2.13 -80.3 0 1 8.52 26.73
  C 8.23 25.34 9.31 24.62 10.54 24.20
  Q 31.41 17.24 52.17 10.30
  A 1.89 1.89 0.0 0 1 53.82 10.53
  Q 55.18 11.43 54.62 13.08
  Q 47.53 34.24 40.53 55.36
  A 1.90 1.90 0.0 0 1 37.12 55.78
  L 30.37 45.17
  A 1.83 1.83 0.0 0 1 31.14 42.53
  C 33.80 41.28 36.36 47.35 37.72 49.15
  Q 38.20 49.80 38.46 49.03
  L 49.42 16.09
  Q 49.66 15.38 48.95 15.62
  Z"
/>
<rect fill="#6d6e71" x="-11.99" y="-2.02" transform="translate(30.29,34.70) rotate(-45.0)" width="23.98" height="4.04" rx="1.98"/>
</svg>
