<?xml version="1.0" encoding="UTF-8" standalone="no"?>
<!DOCTYPE svg PUBLIC "-//W3C//DTD SVG 1.1//EN" "http://www.w3.org/Graphics/SVG/1.1/DTD/svg11.dtd">
<svg xmlns="http://www.w3.org/2000/svg" version="1.1" viewBox="0.00 0.00 64.00 64.00">
<path fill="#1b1a1c" d="
  M 46.52 33.92
  Q 41.74 38.25 37.30 33.71
  Q 37.01 33.40 36.71 33.70
  Q 32.04 38.28 27.30 33.77
  Q 26.94 33.44 26.60 33.78
  Q 22.00 38.32 17.32 33.76
  Q 16.91 33.35 16.51 33.78
  C 13.20 37.32 8.10 36.37 6.51 32.18
  C 5.09 28.45 10.82 13.54 12.19 9.15
  A 1.65 1.64 8.7 0 1 13.76 8.00
  L 49.74 8.00
  Q 51.46 8.00 51.98 9.65
  Q 55.19 19.97 57.99 29.51
  Q 58.31 30.59 57.57 32.25
  C 55.63 36.59 50.89 37.01 47.45 33.92
  A 0.70 0.69 -44.7 0 0 46.52 33.92
  Z
  M 35.09 28.25
  Q 39.56 26.79 40.26 30.86
  A 1.70 1.70 0.0 0 0 43.60 30.94
  C 44.31 27.76 47.30 26.97 49.70 28.81
  A 0.85 0.84 20.7 0 1 50.02 29.51
  Q 49.87 32.10 52.35 32.03
  A 1.69 1.68 81.0 0 0 53.92 29.86
  L 48.74 12.55
  A 0.78 0.77 81.3 0 0 48.00 12.00
  L 15.97 12.00
  Q 15.41 12.00 15.26 12.53
  L 10.12 29.69
  A 1.80 1.80 0.0 0 0 11.57 31.99
  Q 12.64 32.16 13.42 31.47
  Q 13.82 31.12 13.88 30.59
  C 14.19 27.66 16.75 27.53 18.96 28.29
  A 1.10 1.10 0.0 0 1 19.64 28.96
  L 20.41 31.12
  A 1.72 1.72 0.0 0 0 23.68 31.04
  L 24.28 29.08
  A 1.20 1.19 -2.1 0 1 25.00 28.31
  Q 27.31 27.46 29.44 28.55
  A 0.95 0.94 -78.8 0 1 29.95 29.32
  C 30.07 31.01 31.06 32.81 33.01 31.67
  Q 33.46 31.41 33.65 30.92
  L 34.49 28.82
  Q 34.65 28.39 35.09 28.25
  Z"
/>
<path fill="#1b1a1c" d="
  M 16.50 54.00
  L 47.49 54.00
  Q 47.99 54.00 47.99 53.50
  Q 48.01 47.90 48.02 42.39
  C 48.02 40.83 49.20 39.71 50.79 40.13
  A 1.59 1.59 0.0 0 1 51.98 41.67
  L 52.01 55.74
  A 2.26 2.25 90.0 0 1 49.76 58.00
  L 14.22 58.00
  A 2.21 2.20 -0.1 0 1 12.01 55.81
  Q 11.97 49.10 12.02 42.30
  C 12.03 40.79 13.27 39.72 14.78 40.12
  A 1.62 1.62 0.0 0 1 16.00 41.69
  L 16.00 53.50
  Q 16.00 54.00 16.50 54.00
  Z"
/>
<path fill="#6c6e70" d="
  M 28.04 44.47
  C 27.99 46.12 28.59 49.95 25.96 49.94
  A 1.97 1.97 0.0 0 1 24.00 47.97
  L 24.00 42.25
  A 2.25 2.25 0.0 0 1 26.25 40.00
  L 38.24 40.00
  A 1.75 1.75 0.0 0 1 39.99 41.69
  C 40.05 43.38 40.90 49.84 38.03 49.94
  A 1.96 1.96 0.0 0 1 36.00 47.98
  L 36.00 44.62
  Q 36.00 44.00 35.37 44.00
  L 28.52 44.00
  Q 28.05 44.00 28.04 44.47
  Z"
/>
</svg>
