<?xml version="1.0" encoding="UTF-8" standalone="no"?>
<!DOCTYPE svg PUBLIC "-//W3C//DTD SVG 1.1//EN" "http://www.w3.org/Graphics/SVG/1.1/DTD/svg11.dtd">
<svg xmlns="http://www.w3.org/2000/svg" version="1.1" viewBox="0.00 0.00 128.00 128.00">
<path fill="#231f20" d="
  M 24.75 33.07
  C 25.98 31.32 27.15 30.48 29.46 30.51
  Q 35.66 30.58 42.20 30.46
  Q 42.78 30.45 42.75 29.87
  C 41.03 -1.61 87.25 -1.29 85.14 29.80
  A 0.54 0.54 0.0 0 0 85.65 30.37
  Q 93.86 30.81 96.98 30.51
  C 101.52 30.07 103.20 31.68 103.87 36.14
  Q 107.95 63.47 111.91 90.81
  C 113.78 103.76 105.52 116.54 93.23 120.46
  Q 88.61 121.93 75.98 122.00
  Q 60.62 122.09 45.26 122.15
  C 27.80 122.22 13.91 108.71 16.34 90.85
  Q 20.24 62.13 24.43 33.89
  A 1.86 1.84 66.6 0 1 24.75 33.07
  Z
  M 52.24 30.51
  L 75.74 30.51
  A 0.50 0.50 0.0 0 0 76.24 30.01
  L 76.24 28.10
  A 12.83 12.15 90.0 0 0 64.09 15.27
  L 63.89 15.27
  A 12.83 12.15 -90.0 0 0 51.74 28.10
  L 51.74 30.01
  A 0.50 0.50 0.0 0 0 52.24 30.51
  Z
  M 75.50 39.50
  L 52.33 39.51
  Q 51.79 39.51 51.78 40.05
  C 51.70 43.20 52.49 47.96 50.58 50.30
  C 48.88 52.38 45.59 52.16 43.70 50.17
  C 42.08 48.47 42.84 42.56 42.66 40.10
  A 0.65 0.64 -1.9 0 0 42.01 39.50
  L 33.47 39.50
  Q 32.87 39.50 32.79 40.10
  Q 29.37 63.70 25.79 87.29
  Q 24.72 94.36 25.49 98.23
  C 27.86 110.03 36.99 112.81 48.02 112.78
  Q 64.24 112.74 80.44 112.73
  Q 87.81 112.72 90.82 111.76
  C 99.34 109.05 103.99 100.13 102.74 91.50
  Q 98.99 65.70 95.18 40.10
  A 0.71 0.70 -4.2 0 0 94.48 39.50
  L 85.76 39.50
  A 0.49 0.48 -88.8 0 0 85.28 39.97
  C 85.18 43.03 85.99 47.88 84.15 50.16
  C 82.45 52.28 79.02 52.27 77.18 50.09
  C 75.54 48.13 76.37 42.73 76.16 40.11
  Q 76.11 39.50 75.50 39.50
  Z"
/>
<rect fill="#231f20" x="38.35" y="89.51" width="51.36" height="6.02" rx="2.95"/>
</svg>
